<svg xmlns="http://www.w3.org/2000/svg" width="32" height="32" viewBox="0 0 32 32">
  <defs>
    <style>
      .cls-1 {
        fill: #fff;
        fill-rule: evenodd;
      }
    </style>
  </defs>
  <path id="_00_footer_RSS.svg" data-name="00_footer_RSS.svg" class="cls-1" d="M2179,1207a16.013,16.013,0,1,1-11.31,4.69A15.913,15.913,0,0,1,2179,1207h0Zm10.43,5.57a14.763,14.763,0,1,0,4.32,10.43,14.732,14.732,0,0,0-4.32-10.43h0Zm-12.41,13.05a1.848,1.848,0,0,1,.56,1.34,1.874,1.874,0,0,1-.55,1.33h-0.01a1.883,1.883,0,0,1-2.68,0,1.871,1.871,0,0,1,0-2.67h0A1.883,1.883,0,0,1,2177.02,1225.62Zm0,0h0Zm-2.68,2.67h0Zm-0.56-8.87v2.73a6.709,6.709,0,0,1,6.7,6.71h0v0.01h2.75A9.457,9.457,0,0,0,2173.78,1219.42Zm0-4.87v2.73a11.6,11.6,0,0,1,11.58,11.59h2.74A14.34,14.34,0,0,0,2173.78,1214.55Z" transform="translate(-2163 -1207)"/>
</svg>
