<svg xmlns="http://www.w3.org/2000/svg" width="32" height="32" viewBox="0 0 32 32">
  <defs>
    <style>
      .cls-1 {
        fill: #fff;
        fill-rule: evenodd;
      }
    </style>
  </defs>
  <path id="_00_footer_WeChat.svg" data-name="00_footer_WeChat.svg" class="cls-1" d="M2700.58,1768.92a7.487,7.487,0,0,0-5.03,2.02,5.918,5.918,0,0,0-1.86,5.02c-0.76-.1-1.45-0.2-2.15-0.26a1.379,1.379,0,0,0-.73.12c-0.68.38-1.33,0.81-2.11,1.29,0.15-.63.24-1.19,0.4-1.73a0.647,0.647,0,0,0-.3-0.86,5.876,5.876,0,0,1-2.59-6.63,6.58,6.58,0,0,1,4.64-4.5,7.825,7.825,0,0,1,8.51,2.47A5.719,5.719,0,0,1,2700.58,1768.92Zm-8.58-.89a1.026,1.026,0,0,0-.97-1.04,1.005,1.005,0,0,0-.06,2.01A1.01,1.01,0,0,0,2692,1768.03Zm3.98-1.05a1.041,1.041,0,0,0-.99,1.03,1,1,0,0,0,1.02.99,0.976,0.976,0,0,0,.97-1.02A0.99,0.99,0,0,0,2695.98,1766.98Zm8.98,14.02a6.919,6.919,0,0,0-1.78-.75,10.576,10.576,0,0,0-1.87.35,6.285,6.285,0,0,1-5.05-1.64,5.052,5.052,0,0,1,.81-8.28,6.833,6.833,0,0,1,8.78,1.29,4.924,4.924,0,0,1-.57,6.91,1.171,1.171,0,0,0-.44,1.66A1.635,1.635,0,0,1,2704.96,1781Zm-6.95-6.02a0.98,0.98,0,1,0,0-1.96A0.98,0.98,0,1,0,2698.01,1774.98Zm4.98-1.96a1.009,1.009,0,0,0-1,.96,0.992,0.992,0,0,0,.99,1.04,0.98,0.98,0,0,0,1-.95A0.994,0.994,0,0,0,2702.99,1773.02ZM2696,1756a16.013,16.013,0,1,1-11.31,4.69A15.954,15.954,0,0,1,2696,1756h0Zm10.43,5.57a14.751,14.751,0,1,0,4.32,10.43,14.682,14.682,0,0,0-4.32-10.43h0Z" transform="translate(-2680 -1756)"/>
</svg>
