<svg xmlns="http://www.w3.org/2000/svg" width="32" height="32" viewBox="0 0 32 32">
  <defs>
    <style>
      .cls-1 {
        fill: #fff;
        fill-rule: evenodd;
      }
    </style>
  </defs>
  <path id="_00_footer_Weibo.svg" data-name="00_footer_Weibo.svg" class="cls-1" d="M1977.71,1222.57c-0.27-.09-0.46-0.14-0.32-0.5a2.073,2.073,0,0,0,.01-1.96c-0.64-.91-2.38-0.86-4.37-0.02,0,0-.63.27-0.47-0.22a2.229,2.229,0,0,0-.22-2.29c-1.08-1.09-3.95.04-6.42,2.51-1.85,1.84-2.92,3.8-2.92,5.5,0,3.24,4.15,5.41,8.22,5.41,5.32,0,8.87-3.3,8.87-5.75A2.973,2.973,0,0,0,1977.71,1222.57Zm-6.48,6.98c-3.25.31-6.04-1.14-6.25-3.24s2.24-4.07,5.49-4.39,6.04,1.14,6.25,3.24S1974.47,1229.23,1971.23,1229.55Zm11.77-9.62a5.978,5.978,0,0,0-6.03-5.93,0.69,0.69,0,1,0,0,1.38,4.588,4.588,0,0,1,4.62,4.55,0.7,0.7,0,0,0,.71.69,0.694,0.694,0,0,0,.7-0.69h0Zm-2.8-.1a3.983,3.983,0,0,0-3.12-3.08,0.693,0.693,0,0,0-.83.54,0.678,0.678,0,0,0,.54.81,2.617,2.617,0,0,1,2.04,2,0.7,0.7,0,0,0,.83.54A0.678,0.678,0,0,0,1980.2,1219.83Zm-10.64,4.16a2.2,2.2,0,0,0-1.96,2.4,2.235,2.235,0,0,0,2.76,1.47,2.2,2.2,0,0,0,1.96-2.4A2.235,2.235,0,0,0,1969.56,1223.99ZM1973,1207a16.013,16.013,0,1,1-11.31,4.69A15.954,15.954,0,0,1,1973,1207h0Zm10.43,5.57a14.751,14.751,0,1,0,4.32,10.43,14.682,14.682,0,0,0-4.32-10.43h0Z" transform="translate(-1957 -1207)"/>
</svg>
